# Blender 3.6.2
# www.blender.org
mtllib trashHeap.mtl
o Sphere
v 0.266604 0.738927 -0.402911
v 0.450051 0.625170 -0.556228
v 0.527086 0.222521 -0.820162
v 0.673765 -0.410256 -1.041291
v 0.422690 -0.623490 -0.657718
v 0.069195 -0.704164 -0.620704
v 0.393989 0.848505 -0.183522
v 0.723902 0.570004 -0.303004
v 0.886826 0.222521 -0.405000
v 0.947289 -0.383402 -0.629270
v 0.711179 -0.623490 -0.324785
v 0.307955 -0.808169 -0.141332
v 0.403190 0.770193 -0.033230
v 0.760644 0.613294 0.099264
v 1.159108 0.306713 0.000632
v 1.314252 -0.421098 0.021473
v 0.773873 -0.623490 0.111266
v 0.354924 -0.822732 0.071771
v 0.401120 1.168305 0.248847
v 0.717694 0.755432 0.180964
v 0.637283 0.208229 0.686656
v 1.027425 -0.538443 0.604868
v 0.590869 -0.623490 0.511990
v 0.207582 -0.774890 0.297152
v 0.245516 1.232989 0.290479
v 0.041579 0.720989 0.823161
v 0.182469 0.315621 0.959862
v 0.454905 -0.442253 0.924729
v 0.220267 -0.623490 0.750162
v 0.004622 -0.779688 0.399085
v 0.167458 1.145076 0.055023
v -0.294324 1.142599 0.463034
v -0.220267 0.623490 0.750162
v -0.532490 0.196001 1.092494
v -0.157194 -0.325586 1.044273
v -0.220267 -0.623490 0.750162
v -0.282495 -0.736088 0.387244
v -0.157822 -0.792536 -0.034161
v -0.355439 1.140432 0.403489
v -0.590868 0.623490 0.511991
v -0.736801 0.222521 0.638442
v -0.720440 -0.463133 0.844009
v -0.590868 -0.623490 0.511991
v -0.407355 -0.818279 0.284213
v -0.380745 1.032067 0.074859
v -0.773873 0.623490 0.111266
v -0.965004 0.222521 0.138747
v -0.956116 -0.432173 0.298109
v -0.773873 -0.623490 0.111266
v -0.518876 -0.807285 0.071417
v -0.406834 0.977995 -0.073862
v -0.646346 0.688688 -0.375900
v -0.961264 0.259989 -0.278358
v -1.010379 -0.437482 -0.362462
v -0.711179 -0.623490 -0.324784
v -0.508550 -0.745507 -0.264695
v -0.101518 0.916154 -0.512499
v -0.422690 0.623490 -0.657718
v -0.527086 0.222521 -0.820161
v -0.759636 -0.423022 -0.725154
v -0.423080 -0.621755 -0.659590
v -0.353916 -0.762729 -0.595154
v 0.066919 0.807506 -0.509628
v -0.000000 0.623490 -0.781831
v -0.000000 0.222521 -0.974927
v -0.302222 -0.372540 -1.203086
v -0.005420 -0.608062 -0.786184
v -0.114692 -0.708500 -0.609673
vn 0.0147 -0.9896 -0.1434
vn 0.0686 -0.8685 -0.4908
vn 0.3151 0.4918 -0.8117
vn 0.5096 0.6955 -0.5065
vn 0.0862 -0.8442 -0.5291
vn 0.2032 0.3137 -0.9275
vn 0.3289 0.8137 -0.4793
vn -0.0735 -0.9816 -0.1763
vn 0.4120 -0.8672 -0.2796
vn 0.6523 0.4905 -0.5778
vn 0.3576 0.7358 -0.5751
vn 0.2448 -0.9289 -0.2778
vn 0.7435 0.3329 -0.5800
vn 0.3940 0.8133 -0.4281
vn -0.0468 -0.9972 -0.0578
vn 0.4100 -0.8914 -0.1930
vn 0.6527 0.6692 -0.3552
vn 0.8498 0.4869 0.2017
vn 0.4085 -0.9084 -0.0894
vn 0.8318 0.2127 -0.5127
vn 0.5350 0.8448 0.0091
vn 0.7107 0.5005 0.4944
vn 0.5256 0.4936 -0.6928
vn 0.3236 -0.9151 0.2407
vn 0.7907 0.2697 0.5496
vn 0.4998 0.5120 -0.6986
vn -0.0891 -0.9845 0.1507
vn 0.2821 -0.9592 0.0203
vn 0.1895 -0.9328 0.3065
vn 0.5173 0.1625 0.8403
vn 0.5855 0.4198 0.6935
vn 0.0324 -0.9993 0.0175
vn 0.1725 -0.8797 0.4431
vn 0.5691 0.4843 0.6645
vn 0.2540 0.8755 -0.4111
vn -0.0615 -0.9260 0.3726
vn 0.1865 0.0305 0.9820
vn -0.0499 0.6254 0.7787
vn -0.1531 -0.9844 0.0866
vn 0.0034 -0.7003 0.7138
vn -0.0602 0.5070 0.8599
vn -0.2418 0.9326 -0.2680
vn -0.5279 0.3735 0.7628
vn 0.3916 -0.8896 0.2350
vn -0.1506 -0.8053 0.5734
vn -0.5922 0.6192 0.5156
vn -0.0197 0.9997 -0.0162
vn -0.1500 -0.8893 0.4320
vn -0.6360 -0.1067 0.7642
vn 0.0223 -0.9978 -0.0632
vn -0.5495 -0.8069 0.2167
vn -0.8257 0.4195 0.3771
vn -0.2032 0.9344 -0.2925
vn -0.5429 -0.8029 0.2462
vn -0.9091 0.0934 0.4061
vn -0.8077 0.5713 0.1458
vn -0.6170 -0.7869 -0.0009
vn -0.8563 0.5123 -0.0661
vn -0.2029 0.9312 -0.3030
vn -0.5481 -0.8280 -0.1181
vn -0.9983 0.0324 0.0478
vn -0.7173 0.6892 -0.1024
vn -0.0128 -0.9834 -0.1811
vn -0.2102 0.9372 -0.2784
vn -0.5606 -0.7478 -0.3557
vn -0.7850 0.1598 -0.5985
vn -0.4378 0.7737 -0.4579
vn -0.1277 -0.9918 -0.0081
vn -0.4399 -0.8232 -0.3589
vn -0.6924 0.3970 -0.6025
vn -0.0809 -0.6973 -0.7122
vn -0.5250 0.3113 -0.7921
vn -0.0284 0.6715 -0.7404
vn 0.2121 -0.9691 -0.1256
vn -0.2470 -0.8588 -0.4487
vn -0.2558 0.4195 -0.8710
vn 0.4715 0.7174 -0.5128
vt 0.681818 0.000000
vt 0.727273 0.142857
vt 0.636364 0.142857
vt 0.727273 0.285714
vt 0.727273 0.428571
vt 0.636364 0.428571
vt 0.636364 0.285714
vt 0.727273 0.571429
vt 0.727273 0.714286
vt 0.636364 0.714286
vt 0.636364 0.571429
vt 0.727273 0.857143
vt 0.681818 1.000000
vt 0.636364 0.857143
vt 0.590909 0.000000
vt 0.545455 0.142857
vt 0.545455 0.428571
vt 0.545455 0.285714
vt 0.545455 0.714286
vt 0.545455 0.571429
vt 0.590909 1.000000
vt 0.545455 0.857143
vt 0.500000 0.000000
vt 0.454545 0.142857
vt 0.454545 0.428571
vt 0.454545 0.285714
vt 0.454545 0.714286
vt 0.454545 0.571429
vt 0.500000 1.000000
vt 0.454545 0.857143
vt 0.363636 0.714286
vt 0.363636 0.571429
vt 0.409091 1.000000
vt 0.363636 0.857143
vt 0.363636 0.285714
vt 0.363636 0.142857
vt 0.363636 0.428571
vt 0.409091 0.000000
vt 0.272727 0.285714
vt 0.272727 0.142857
vt 0.272727 0.571429
vt 0.272727 0.428571
vt 0.272727 0.857143
vt 0.272727 0.714286
vt 0.318182 0.000000
vt 0.318182 1.000000
vt 0.181818 0.285714
vt 0.181818 0.142857
vt 0.181818 0.571429
vt 0.181818 0.428571
vt 0.181818 0.857143
vt 0.181818 0.714286
vt 0.227273 0.000000
vt 0.227273 1.000000
vt 0.090909 0.857143
vt 0.090909 0.714286
vt 0.136364 0.000000
vt 0.090909 0.142857
vt 0.090909 0.428571
vt 0.090909 0.285714
vt 0.090909 0.571429
vt 0.136364 1.000000
vt 0.045455 0.000000
vt 0.000000 0.142857
vt 0.000000 0.428571
vt 0.000000 0.285714
vt 0.000000 0.714286
vt 0.000000 0.571429
vt 0.045455 1.000000
vt 0.000000 0.857143
vt 1.000000 0.285714
vt 1.000000 0.428571
vt 0.909091 0.428571
vt 0.909091 0.285714
vt 1.000000 0.571429
vt 1.000000 0.714286
vt 0.909091 0.714286
vt 0.909091 0.571429
vt 1.000000 0.857143
vt 0.954545 1.000000
vt 0.909091 0.857143
vt 1.000000 0.142857
vt 0.909091 0.142857
vt 0.954545 0.000000
vt 0.863636 1.000000
vt 0.818182 0.857143
vt 0.818182 0.285714
vt 0.818182 0.142857
vt 0.818182 0.571429
vt 0.818182 0.428571
vt 0.818182 0.714286
vt 0.863636 0.000000
vt 0.772727 0.000000
vt 0.772727 1.000000
s 0
f 38/1/1 68/2/1 6/3/1
f 67/4/2 66/5/2 4/6/2 5/7/2
f 65/8/3 64/9/3 2/10/3 3/11/3
f 63/12/4 31/13/4 1/14/4
f 68/2/5 67/4/5 5/7/5 6/3/5
f 66/5/6 65/8/6 3/11/6 4/6/6
f 64/9/7 63/12/7 1/14/7 2/10/7
f 38/15/8 6/3/8 12/16/8
f 5/7/9 4/6/9 10/17/9 11/18/9
f 3/11/10 2/10/10 8/19/10 9/20/10
f 1/14/11 31/21/11 7/22/11
f 6/3/12 5/7/12 11/18/12 12/16/12
f 4/6/13 3/11/13 9/20/13 10/17/13
f 2/10/14 1/14/14 7/22/14 8/19/14
f 38/23/15 12/16/15 18/24/15
f 11/18/16 10/17/16 16/25/16 17/26/16
f 9/20/17 8/19/17 14/27/17 15/28/17
f 7/22/18 31/29/18 13/30/18
f 12/16/19 11/18/19 17/26/19 18/24/19
f 10/17/20 9/20/20 15/28/20 16/25/20
f 8/19/21 7/22/21 13/30/21 14/27/21
f 15/28/22 14/27/22 20/31/22 21/32/22
f 13/30/23 31/33/23 19/34/23
f 18/24/24 17/26/24 23/35/24 24/36/24
f 16/25/25 15/28/25 21/32/25 22/37/25
f 14/27/26 13/30/26 19/34/26 20/31/26
f 38/38/27 18/24/27 24/36/27
f 17/26/28 16/25/28 22/37/28 23/35/28
f 24/36/29 23/35/29 29/39/29 30/40/29
f 22/37/30 21/32/30 27/41/30 28/42/30
f 20/31/31 19/34/31 25/43/31 26/44/31
f 38/45/32 24/36/32 30/40/32
f 23/35/33 22/37/33 28/42/33 29/39/33
f 21/32/34 20/31/34 26/44/34 27/41/34
f 19/34/35 31/46/35 25/43/35
f 30/40/36 29/39/36 36/47/36 37/48/36
f 28/42/37 27/41/37 34/49/37 35/50/37
f 26/44/38 25/43/38 32/51/38 33/52/38
f 38/53/39 30/40/39 37/48/39
f 29/39/40 28/42/40 35/50/40 36/47/40
f 27/41/41 26/44/41 33/52/41 34/49/41
f 25/43/42 31/54/42 32/51/42
f 33/52/43 32/51/43 39/55/43 40/56/43
f 38/57/44 37/48/44 44/58/44
f 36/47/45 35/50/45 42/59/45 43/60/45
f 34/49/46 33/52/46 40/56/46 41/61/46
f 32/51/47 31/62/47 39/55/47
f 37/48/48 36/47/48 43/60/48 44/58/48
f 35/50/49 34/49/49 41/61/49 42/59/49
f 38/63/50 44/58/50 50/64/50
f 43/60/51 42/59/51 48/65/51 49/66/51
f 41/61/52 40/56/52 46/67/52 47/68/52
f 39/55/53 31/69/53 45/70/53
f 44/58/54 43/60/54 49/66/54 50/64/54
f 42/59/55 41/61/55 47/68/55 48/65/55
f 40/56/56 39/55/56 45/70/56 46/67/56
f 49/71/57 48/72/57 54/73/57 55/74/57
f 47/75/58 46/76/58 52/77/58 53/78/58
f 45/79/59 31/80/59 51/81/59
f 50/82/60 49/71/60 55/74/60 56/83/60
f 48/72/61 47/75/61 53/78/61 54/73/61
f 46/76/62 45/79/62 51/81/62 52/77/62
f 38/84/63 50/82/63 56/83/63
f 51/81/64 31/85/64 57/86/64
f 56/83/65 55/74/65 61/87/65 62/88/65
f 54/73/66 53/78/66 59/89/66 60/90/66
f 52/77/67 51/81/67 57/86/67 58/91/67
f 38/92/68 56/83/68 62/88/68
f 55/74/69 54/73/69 60/90/69 61/87/69
f 53/78/70 52/77/70 58/91/70 59/89/70
f 62/88/71 61/87/71 67/4/71 68/2/71
f 60/90/72 59/89/72 65/8/72 66/5/72
f 58/91/73 57/86/73 63/12/73 64/9/73
f 38/93/74 62/88/74 68/2/74
f 61/87/75 60/90/75 66/5/75 67/4/75
f 59/89/76 58/91/76 64/9/76 65/8/76
f 57/86/77 31/94/77 63/12/77
